{"title":"Argo (2012) CAM x264 AC3-BBnRG","uid":7749466,"size":629730017,"categoryP":"video","categoryS":"movies","magnet":"?xt=urn:btih:4d2f353887384db59f968e9efbeb4f79798edbdf&amp;dn=Argo+%282012%29+CAM+x264+AC3-BBnRG&amp;tr=udp%3A%2F%2Ftracker.openbittorrent.com%3A80&amp;tr=udp%3A%2F%2Fopen.demonii.com%3A1337&amp;tr=udp%3A%2F%2Ftracker.coppersurfer.tk%3A6969&amp;tr=udp%3A%2F%2Fexodus.desync.com%3A6969","seeders":0,"leechers":0,"uploader":"Acesn8s","files":-1,"time":1350859134,"description":"Argo (2012) CAM x264 AC3-BBnRG\n &lt;a href=&quot;\nhttp://www.imdb.com/title/tt1024648/&quot; rel=&quot;nofollow&quot; target=&quot;_NEW&quot;&gt;\nhttp://www.imdb.com/title/tt1024648/&lt;/a&gt;\n\nFormat: Matroska\nFormat version: Version 2\nFile size: 601 MiB\nDuration: 1h 51mn\nOverall bit rate: 755 Kbps\n\nVideo\nID: 1\nFormat: AVC\nFormat/Info: Advanced Video Codec\nFormat profile: &lt;a class=&quot;__cf_email__&quot; href=&quot;/cdn-cgi/l/email-protection&quot; data-cfemail=&quot;2e664749466e621d001e&quot;&gt;[email&amp;#160;protected]&lt;/a&gt;&lt;script cf-hash='f9e31' type=&quot;text/javascript&quot;&gt;\n/* &lt;![CDATA[ */!function(){try{var t=&quot;currentScript&quot;in document?document.currentScript:function(){for(var t=document.getElementsByTagName(&quot;script&quot;),e=t.length;e--;)if(t[e].getAttribute(&quot;cf-hash&quot;))return t[e]}();if(t&amp;&amp;t.previousSibling){var e,r,n,i,c=t.previousSibling,a=c.getAttribute(&quot;data-cfemail&quot;);if(a){for(e=&quot;&quot;,r=parseInt(a.substr(0,2),16),n=2;a.length-n;n+=2)i=parseInt(a.substr(n,2),16)^r,e+=String.fromCharCode(i);e=document.createTextNode(e),c.parentNode.replaceChild(e,c)}}}catch(u){}}();/* ]]&gt; */&lt;/script&gt;\nFormat settings, CABAC: Yes\nFormat settings, ReFrames: 6 frames\nCodec ID: V_MPEG4/ISO/AVC\nDuration: 1h 51mn\nBit rate: 622 Kbps\nWidth: 720 pixels\nHeight: 344 pixels\nDisplay aspect ratio: 2.093\nFrame rate mode: Variable\nFrame rate: 23.976 fps\nColor space: YUV\nChroma subsampling: 4:2:0\nBit depth: 8 bits\nScan type: Progressive\nBits/(Pixel*Frame): 0.105\nStream size: 487 MiB (81%)\nWriting library: x264 core 112\n\nAudio\nID: 2\nFormat: AC-3\nFormat/Info: Audio Coding 3\nMode extension: CM (complete main)\nCodec ID: A_AC3\nDuration: 1h 51mn\nBit rate mode: Constant\nBit rate: 128 Kbps\nChannel(s): 2 channels\nChannel positions: Front: L R\nSampling rate: 44.1 KHz\nBit depth: 16 bits\nCompression mode: Lossy\nStream size: 102 MiB (17%)\n\nScreens\n &lt;a href=&quot;\nhttp://imageshack.us/a/img715/5803/image100001.jpg&quot; rel=&quot;nofollow&quot; target=&quot;_NEW&quot;&gt;\nhttp://imageshack.us/a/img715/5803/image100001.jpg&lt;/a&gt;\n &lt;a href=&quot;\nhttp://imageshack.us/a/img827/5149/image100002.jpg&quot; rel=&quot;nofollow&quot; target=&quot;_NEW&quot;&gt;\nhttp://imageshack.us/a/img827/5149/image100002.jpg&lt;/a&gt;\n &lt;a href=&quot;\nhttp://imageshack.us/a/img685/9830/image100003.jpg&quot; rel=&quot;nofollow&quot; target=&quot;_NEW&quot;&gt;\nhttp://imageshack.us/a/img685/9830/image100003.jpg&lt;/a&gt;\n &lt;a href=&quot;\nhttp://imageshack.us/a/img542/5633/image100004.jpg&quot; rel=&quot;nofollow&quot; target=&quot;_NEW&quot;&gt;\nhttp://imageshack.us/a/img542/5633/image100004.jpg&lt;/a&gt;\n &lt;a href=&quot;\nhttp://imageshack.us/a/img197/9311/image100005.jpg&quot; rel=&quot;nofollow&quot; target=&quot;_NEW&quot;&gt;\nhttp://imageshack.us/a/img197/9311/image100005.jpg&lt;/a&gt;","torrent":{"xt":"urn:btih:4d2f353887384db59f968e9efbeb4f79798edbdf","amp;dn":"Argo+%282012%29+CAM+x264+AC3-BBnRG","amp;tr":["udp%3A%2F%2Ftracker.openbittorrent.com%3A80","udp%3A%2F%2Fopen.demonii.com%3A1337","udp%3A%2F%2Ftracker.coppersurfer.tk%3A6969","udp%3A%2F%2Fexodus.desync.com%3A6969"],"infoHash":"4d2f353887384db59f968e9efbeb4f79798edbdf","infoHashBuffer":{"type":"Buffer","data":[77,47,53,56,135,56,77,181,159,150,142,158,251,235,79,121,121,142,219,223]},"announce":[],"urlList":[]}}